<svg width="372" height="58" viewBox="0 0 372 58" fill="none" xmlns="http://www.w3.org/2000/svg">
<g filter="url(#filter0_d_9_1565)">
<path d="M22.7656 33.8359H14.0703V28.3516H22.7656C24.1094 28.3516 25.2031 28.1328 26.0469 27.6953C26.8906 27.2422 27.5078 26.6172 27.8984 25.8203C28.2891 25.0234 28.4844 24.125 28.4844 23.125C28.4844 22.1094 28.2891 21.1641 27.8984 20.2891C27.5078 19.4141 26.8906 18.7109 26.0469 18.1797C25.2031 17.6484 24.1094 17.3828 22.7656 17.3828H16.5078V46H9.47656V11.875H22.7656C25.4375 11.875 27.7266 12.3594 29.6328 13.3281C31.5547 14.2813 33.0234 15.6016 34.0391 17.2891C35.0547 18.9766 35.5625 20.9062 35.5625 23.0781C35.5625 25.2812 35.0547 27.1875 34.0391 28.7969C33.0234 30.4062 31.5547 31.6484 29.6328 32.5234C27.7266 33.3984 25.4375 33.8359 22.7656 33.8359ZM47.1172 20.6406V46H40.3438V20.6406H47.1172ZM39.9219 14.0312C39.9219 13.0469 40.2656 12.2344 40.9531 11.5938C41.6406 10.9531 42.5625 10.6328 43.7188 10.6328C44.8594 10.6328 45.7734 10.9531 46.4609 11.5938C47.1641 12.2344 47.5156 13.0469 47.5156 14.0312C47.5156 15.0156 47.1641 15.8281 46.4609 16.4688C45.7734 17.1094 44.8594 17.4297 43.7188 17.4297C42.5625 17.4297 41.6406 17.1094 40.9531 16.4688C40.2656 15.8281 39.9219 15.0156 39.9219 14.0312ZM72.875 40.7266V46H53.6094V40.7266H72.875ZM72.5 24.5312L56.3281 46H51.8047V41.9922L67.9062 20.6406H72.5V24.5312ZM70.1094 20.6406V25.9375H52.1797V20.6406H70.1094ZM97.2969 40.7266V46H78.0312V40.7266H97.2969ZM96.9219 24.5312L80.75 46H76.2266V41.9922L92.3281 20.6406H96.9219V24.5312ZM94.5312 20.6406V25.9375H76.6016V20.6406H94.5312ZM115.227 40.2812V28.9844C115.227 28.1719 115.094 27.4766 114.828 26.8984C114.562 26.3047 114.148 25.8438 113.586 25.5156C113.039 25.1875 112.328 25.0234 111.453 25.0234C110.703 25.0234 110.055 25.1562 109.508 25.4219C108.961 25.6719 108.539 26.0391 108.242 26.5234C107.945 26.9922 107.797 27.5469 107.797 28.1875H101.047C101.047 27.1094 101.297 26.0859 101.797 25.1172C102.297 24.1484 103.023 23.2969 103.977 22.5625C104.93 21.8125 106.062 21.2266 107.375 20.8047C108.703 20.3828 110.188 20.1719 111.828 20.1719C113.797 20.1719 115.547 20.5 117.078 21.1562C118.609 21.8125 119.812 22.7969 120.688 24.1094C121.578 25.4219 122.023 27.0625 122.023 29.0312V39.8828C122.023 41.2734 122.109 42.4141 122.281 43.3047C122.453 44.1797 122.703 44.9453 123.031 45.6016V46H116.211C115.883 45.3125 115.633 44.4531 115.461 43.4219C115.305 42.375 115.227 41.3281 115.227 40.2812ZM116.117 30.5547L116.164 34.375H112.391C111.5 34.375 110.727 34.4766 110.07 34.6797C109.414 34.8828 108.875 35.1719 108.453 35.5469C108.031 35.9062 107.719 36.3281 107.516 36.8125C107.328 37.2969 107.234 37.8281 107.234 38.4062C107.234 38.9844 107.367 39.5078 107.633 39.9766C107.898 40.4297 108.281 40.7891 108.781 41.0547C109.281 41.3047 109.867 41.4297 110.539 41.4297C111.555 41.4297 112.438 41.2266 113.188 40.8203C113.938 40.4141 114.516 39.9141 114.922 39.3203C115.344 38.7266 115.562 38.1641 115.578 37.6328L117.359 40.4922C117.109 41.1328 116.766 41.7969 116.328 42.4844C115.906 43.1719 115.367 43.8203 114.711 44.4297C114.055 45.0234 113.266 45.5156 112.344 45.9062C111.422 46.2812 110.328 46.4688 109.062 46.4688C107.453 46.4688 105.992 46.1484 104.68 45.5078C103.383 44.8516 102.352 43.9531 101.586 42.8125C100.836 41.6562 100.461 40.3438 100.461 38.875C100.461 37.5469 100.711 36.3672 101.211 35.3359C101.711 34.3047 102.445 33.4375 103.414 32.7344C104.398 32.0156 105.625 31.4766 107.094 31.1172C108.562 30.7422 110.266 30.5547 112.203 30.5547H116.117ZM133.977 26.1719V46H127.227V20.6406H133.578L133.977 26.1719ZM141.617 20.4766L141.5 26.7344C141.172 26.6875 140.773 26.6484 140.305 26.6172C139.852 26.5703 139.438 26.5469 139.062 26.5469C138.109 26.5469 137.281 26.6719 136.578 26.9219C135.891 27.1562 135.312 27.5078 134.844 27.9766C134.391 28.4453 134.047 29.0156 133.812 29.6875C133.594 30.3594 133.469 31.125 133.438 31.9844L132.078 31.5625C132.078 29.9219 132.242 28.4141 132.57 27.0391C132.898 25.6484 133.375 24.4375 134 23.4062C134.641 22.375 135.422 21.5781 136.344 21.0156C137.266 20.4531 138.32 20.1719 139.508 20.1719C139.883 20.1719 140.266 20.2031 140.656 20.2656C141.047 20.3125 141.367 20.3828 141.617 20.4766ZM151.93 20.6406V46H145.156V20.6406H151.93ZM144.734 14.0312C144.734 13.0469 145.078 12.2344 145.766 11.5938C146.453 10.9531 147.375 10.6328 148.531 10.6328C149.672 10.6328 150.586 10.9531 151.273 11.5938C151.977 12.2344 152.328 13.0469 152.328 14.0312C152.328 15.0156 151.977 15.8281 151.273 16.4688C150.586 17.1094 149.672 17.4297 148.531 17.4297C147.375 17.4297 146.453 17.1094 145.766 16.4688C145.078 15.8281 144.734 15.0156 144.734 14.0312ZM171.195 40.2812V28.9844C171.195 28.1719 171.062 27.4766 170.797 26.8984C170.531 26.3047 170.117 25.8438 169.555 25.5156C169.008 25.1875 168.297 25.0234 167.422 25.0234C166.672 25.0234 166.023 25.1562 165.477 25.4219C164.93 25.6719 164.508 26.0391 164.211 26.5234C163.914 26.9922 163.766 27.5469 163.766 28.1875H157.016C157.016 27.1094 157.266 26.0859 157.766 25.1172C158.266 24.1484 158.992 23.2969 159.945 22.5625C160.898 21.8125 162.031 21.2266 163.344 20.8047C164.672 20.3828 166.156 20.1719 167.797 20.1719C169.766 20.1719 171.516 20.5 173.047 21.1562C174.578 21.8125 175.781 22.7969 176.656 24.1094C177.547 25.4219 177.992 27.0625 177.992 29.0312V39.8828C177.992 41.2734 178.078 42.4141 178.25 43.3047C178.422 44.1797 178.672 44.9453 179 45.6016V46H172.18C171.852 45.3125 171.602 44.4531 171.43 43.4219C171.273 42.375 171.195 41.3281 171.195 40.2812ZM172.086 30.5547L172.133 34.375H168.359C167.469 34.375 166.695 34.4766 166.039 34.6797C165.383 34.8828 164.844 35.1719 164.422 35.5469C164 35.9062 163.688 36.3281 163.484 36.8125C163.297 37.2969 163.203 37.8281 163.203 38.4062C163.203 38.9844 163.336 39.5078 163.602 39.9766C163.867 40.4297 164.25 40.7891 164.75 41.0547C165.25 41.3047 165.836 41.4297 166.508 41.4297C167.523 41.4297 168.406 41.2266 169.156 40.8203C169.906 40.4141 170.484 39.9141 170.891 39.3203C171.312 38.7266 171.531 38.1641 171.547 37.6328L173.328 40.4922C173.078 41.1328 172.734 41.7969 172.297 42.4844C171.875 43.1719 171.336 43.8203 170.68 44.4297C170.023 45.0234 169.234 45.5156 168.312 45.9062C167.391 46.2812 166.297 46.4688 165.031 46.4688C163.422 46.4688 161.961 46.1484 160.648 45.5078C159.352 44.8516 158.32 43.9531 157.555 42.8125C156.805 41.6562 156.43 40.3438 156.43 38.875C156.43 37.5469 156.68 36.3672 157.18 35.3359C157.68 34.3047 158.414 33.4375 159.383 32.7344C160.367 32.0156 161.594 31.4766 163.062 31.1172C164.531 30.7422 166.234 30.5547 168.172 30.5547H172.086Z" fill="#FFD600"/>
</g>
<path d="M199.062 40.4688V10H205.859V46H199.742L199.062 40.4688ZM183.031 33.625V33.1328C183.031 31.1953 183.25 29.4375 183.688 27.8594C184.125 26.2656 184.766 24.8984 185.609 23.7578C186.453 22.6172 187.492 21.7344 188.727 21.1094C189.961 20.4844 191.367 20.1719 192.945 20.1719C194.43 20.1719 195.727 20.4844 196.836 21.1094C197.961 21.7344 198.914 22.625 199.695 23.7812C200.492 24.9219 201.133 26.2734 201.617 27.8359C202.102 29.3828 202.453 31.0781 202.672 32.9219V34C202.453 35.7656 202.102 37.4062 201.617 38.9219C201.133 40.4375 200.492 41.7656 199.695 42.9062C198.914 44.0312 197.961 44.9062 196.836 45.5312C195.711 46.1562 194.398 46.4688 192.898 46.4688C191.32 46.4688 189.914 46.1484 188.68 45.5078C187.461 44.8672 186.43 43.9688 185.586 42.8125C184.758 41.6562 184.125 40.2969 183.688 38.7344C183.25 37.1719 183.031 35.4688 183.031 33.625ZM189.781 33.1328V33.625C189.781 34.6719 189.859 35.6484 190.016 36.5547C190.188 37.4609 190.461 38.2656 190.836 38.9688C191.227 39.6562 191.727 40.1953 192.336 40.5859C192.961 40.9609 193.719 41.1484 194.609 41.1484C195.766 41.1484 196.719 40.8906 197.469 40.375C198.219 39.8438 198.789 39.1172 199.18 38.1953C199.586 37.2734 199.82 36.2109 199.883 35.0078V31.9375C199.836 30.9531 199.695 30.0703 199.461 29.2891C199.242 28.4922 198.914 27.8125 198.477 27.25C198.055 26.6875 197.523 26.25 196.883 25.9375C196.258 25.625 195.516 25.4688 194.656 25.4688C193.781 25.4688 193.031 25.6719 192.406 26.0781C191.781 26.4688 191.273 27.0078 190.883 27.6953C190.508 28.3828 190.227 29.1953 190.039 30.1328C189.867 31.0547 189.781 32.0547 189.781 33.1328ZM226.133 39.9297V20.6406H232.883V46H226.531L226.133 39.9297ZM226.883 34.7266L228.875 34.6797C228.875 36.3672 228.68 37.9375 228.289 39.3906C227.898 40.8281 227.312 42.0781 226.531 43.1406C225.75 44.1875 224.766 45.0078 223.578 45.6016C222.391 46.1797 220.992 46.4688 219.383 46.4688C218.148 46.4688 217.008 46.2969 215.961 45.9531C214.93 45.5938 214.039 45.0391 213.289 44.2891C212.555 43.5234 211.977 42.5469 211.555 41.3594C211.148 40.1562 210.945 38.7109 210.945 37.0234V20.6406H217.695V37.0703C217.695 37.8203 217.781 38.4531 217.953 38.9688C218.141 39.4844 218.398 39.9062 218.727 40.2344C219.055 40.5625 219.438 40.7969 219.875 40.9375C220.328 41.0781 220.828 41.1484 221.375 41.1484C222.766 41.1484 223.859 40.8672 224.656 40.3047C225.469 39.7422 226.039 38.9766 226.367 38.0078C226.711 37.0234 226.883 35.9297 226.883 34.7266ZM252.688 11.875H258.641L267.406 36.9297L276.172 11.875H282.125L269.797 46H265.016L252.688 11.875ZM249.477 11.875H255.406L256.484 36.2969V46H249.477V11.875ZM279.406 11.875H285.359V46H278.328V36.2969L279.406 11.875ZM304.789 40.2812V28.9844C304.789 28.1719 304.656 27.4766 304.391 26.8984C304.125 26.3047 303.711 25.8438 303.148 25.5156C302.602 25.1875 301.891 25.0234 301.016 25.0234C300.266 25.0234 299.617 25.1562 299.07 25.4219C298.523 25.6719 298.102 26.0391 297.805 26.5234C297.508 26.9922 297.359 27.5469 297.359 28.1875H290.609C290.609 27.1094 290.859 26.0859 291.359 25.1172C291.859 24.1484 292.586 23.2969 293.539 22.5625C294.492 21.8125 295.625 21.2266 296.938 20.8047C298.266 20.3828 299.75 20.1719 301.391 20.1719C303.359 20.1719 305.109 20.5 306.641 21.1562C308.172 21.8125 309.375 22.7969 310.25 24.1094C311.141 25.4219 311.586 27.0625 311.586 29.0312V39.8828C311.586 41.2734 311.672 42.4141 311.844 43.3047C312.016 44.1797 312.266 44.9453 312.594 45.6016V46H305.773C305.445 45.3125 305.195 44.4531 305.023 43.4219C304.867 42.375 304.789 41.3281 304.789 40.2812ZM305.68 30.5547L305.727 34.375H301.953C301.062 34.375 300.289 34.4766 299.633 34.6797C298.977 34.8828 298.438 35.1719 298.016 35.5469C297.594 35.9062 297.281 36.3281 297.078 36.8125C296.891 37.2969 296.797 37.8281 296.797 38.4062C296.797 38.9844 296.93 39.5078 297.195 39.9766C297.461 40.4297 297.844 40.7891 298.344 41.0547C298.844 41.3047 299.43 41.4297 300.102 41.4297C301.117 41.4297 302 41.2266 302.75 40.8203C303.5 40.4141 304.078 39.9141 304.484 39.3203C304.906 38.7266 305.125 38.1641 305.141 37.6328L306.922 40.4922C306.672 41.1328 306.328 41.7969 305.891 42.4844C305.469 43.1719 304.93 43.8203 304.273 44.4297C303.617 45.0234 302.828 45.5156 301.906 45.9062C300.984 46.2812 299.891 46.4688 298.625 46.4688C297.016 46.4688 295.555 46.1484 294.242 45.5078C292.945 44.8516 291.914 43.9531 291.148 42.8125C290.398 41.6562 290.023 40.3438 290.023 38.875C290.023 37.5469 290.273 36.3672 290.773 35.3359C291.273 34.3047 292.008 33.4375 292.977 32.7344C293.961 32.0156 295.188 31.4766 296.656 31.1172C298.125 30.7422 299.828 30.5547 301.766 30.5547H305.68ZM323.539 26.1719V46H316.789V20.6406H323.141L323.539 26.1719ZM331.18 20.4766L331.062 26.7344C330.734 26.6875 330.336 26.6484 329.867 26.6172C329.414 26.5703 329 26.5469 328.625 26.5469C327.672 26.5469 326.844 26.6719 326.141 26.9219C325.453 27.1562 324.875 27.5078 324.406 27.9766C323.953 28.4453 323.609 29.0156 323.375 29.6875C323.156 30.3594 323.031 31.125 323 31.9844L321.641 31.5625C321.641 29.9219 321.805 28.4141 322.133 27.0391C322.461 25.6484 322.938 24.4375 323.562 23.4062C324.203 22.375 324.984 21.5781 325.906 21.0156C326.828 20.4531 327.883 20.1719 329.07 20.1719C329.445 20.1719 329.828 20.2031 330.219 20.2656C330.609 20.3125 330.93 20.3828 331.18 20.4766ZM341.492 20.6406V46H334.719V20.6406H341.492ZM334.297 14.0312C334.297 13.0469 334.641 12.2344 335.328 11.5938C336.016 10.9531 336.938 10.6328 338.094 10.6328C339.234 10.6328 340.148 10.9531 340.836 11.5938C341.539 12.2344 341.891 13.0469 341.891 14.0312C341.891 15.0156 341.539 15.8281 340.836 16.4688C340.148 17.1094 339.234 17.4297 338.094 17.4297C336.938 17.4297 336.016 17.1094 335.328 16.4688C334.641 15.8281 334.297 15.0156 334.297 14.0312ZM345.992 33.5781V33.0859C345.992 31.2266 346.258 29.5156 346.789 27.9531C347.32 26.375 348.094 25.0078 349.109 23.8516C350.125 22.6953 351.375 21.7969 352.859 21.1562C354.344 20.5 356.047 20.1719 357.969 20.1719C359.891 20.1719 361.602 20.5 363.102 21.1562C364.602 21.7969 365.859 22.6953 366.875 23.8516C367.906 25.0078 368.688 26.375 369.219 27.9531C369.75 29.5156 370.016 31.2266 370.016 33.0859V33.5781C370.016 35.4219 369.75 37.1328 369.219 38.7109C368.688 40.2734 367.906 41.6406 366.875 42.8125C365.859 43.9688 364.609 44.8672 363.125 45.5078C361.641 46.1484 359.938 46.4688 358.016 46.4688C356.094 46.4688 354.383 46.1484 352.883 45.5078C351.398 44.8672 350.141 43.9688 349.109 42.8125C348.094 41.6406 347.32 40.2734 346.789 38.7109C346.258 37.1328 345.992 35.4219 345.992 33.5781ZM352.742 33.0859V33.5781C352.742 34.6406 352.836 35.6328 353.023 36.5547C353.211 37.4766 353.508 38.2891 353.914 38.9922C354.336 39.6797 354.883 40.2188 355.555 40.6094C356.227 41 357.047 41.1953 358.016 41.1953C358.953 41.1953 359.758 41 360.43 40.6094C361.102 40.2188 361.641 39.6797 362.047 38.9922C362.453 38.2891 362.75 37.4766 362.938 36.5547C363.141 35.6328 363.242 34.6406 363.242 33.5781V33.0859C363.242 32.0547 363.141 31.0859 362.938 30.1797C362.75 29.2578 362.445 28.4453 362.023 27.7422C361.617 27.0234 361.078 26.4609 360.406 26.0547C359.734 25.6484 358.922 25.4453 357.969 25.4453C357.016 25.4453 356.203 25.6484 355.531 26.0547C354.875 26.4609 354.336 27.0234 353.914 27.7422C353.508 28.4453 353.211 29.2578 353.023 30.1797C352.836 31.0859 352.742 32.0547 352.742 33.0859Z" fill="#FF3F4A"/>
<path d="M244.203 10V13.5625C244.203 14.5781 244.008 15.625 243.617 16.7031C243.242 17.7812 242.734 18.8047 242.094 19.7734C241.453 20.7266 240.75 21.5391 239.984 22.2109L236.82 20.3828C237.398 19.4609 237.891 18.4609 238.297 17.3828C238.703 16.2891 238.906 15.0234 238.906 13.5859V10H244.203Z" fill="#FFD600"/>
<defs>
<filter id="filter0_d_9_1565" x="0.476562" y="0.632812" width="185.523" height="51.8359" filterUnits="userSpaceOnUse" color-interpolation-filters="sRGB">
<feFlood flood-opacity="0" result="BackgroundImageFix"/>
<feColorMatrix in="SourceAlpha" type="matrix" values="0 0 0 0 0 0 0 0 0 0 0 0 0 0 0 0 0 0 127 0" result="hardAlpha"/>
<feOffset dx="-1" dy="-2"/>
<feGaussianBlur stdDeviation="4"/>
<feComposite in2="hardAlpha" operator="out"/>
<feColorMatrix type="matrix" values="0 0 0 0 0 0 0 0 0 0 0 0 0 0 0 0 0 0 0.5 0"/>
<feBlend mode="normal" in2="BackgroundImageFix" result="effect1_dropShadow_9_1565"/>
<feBlend mode="normal" in="SourceGraphic" in2="effect1_dropShadow_9_1565" result="shape"/>
</filter>
</defs>
</svg>
