<svg width="360" height="160" viewBox="0 0 360 160" fill="none" xmlns="http://www.w3.org/2000/svg">
<path d="M43.3994 50.939H26.9146V40.5415H43.3994C45.9469 40.5415 48.0205 40.1268 49.6201 39.2974C51.2197 38.4383 52.3898 37.2534 53.1304 35.7427C53.8709 34.2319 54.2412 32.5286 54.2412 30.6328C54.2412 28.7074 53.8709 26.9152 53.1304 25.2563C52.3898 23.5975 51.2197 22.2645 49.6201 21.2573C48.0205 20.2502 45.9469 19.7466 43.3994 19.7466H31.5356V74H18.2056V9.30469H43.3994C48.4648 9.30469 52.8045 10.223 56.4185 12.0596C60.062 13.8665 62.8465 16.3696 64.772 19.5688C66.6974 22.7681 67.6602 26.4264 67.6602 30.5439C67.6602 34.7207 66.6974 38.3346 64.772 41.3857C62.8465 44.4368 60.062 46.7918 56.4185 48.4507C52.8045 50.1095 48.4648 50.939 43.3994 50.939ZM89.5659 25.9229V74H76.7246V25.9229H89.5659ZM75.9248 13.3926C75.9248 11.5264 76.5765 9.986 77.8799 8.77148C79.1833 7.55697 80.931 6.94971 83.123 6.94971C85.2855 6.94971 87.0184 7.55697 88.3218 8.77148C89.6548 9.986 90.3213 11.5264 90.3213 13.3926C90.3213 15.2588 89.6548 16.7992 88.3218 18.0137C87.0184 19.2282 85.2855 19.8354 83.123 19.8354C80.931 19.8354 79.1833 19.2282 77.8799 18.0137C76.5765 16.7992 75.9248 15.2588 75.9248 13.3926ZM138.398 64.0024V74H101.874V64.0024H138.398ZM137.688 33.2988L107.028 74H98.4526V66.4019L128.979 25.9229H137.688V33.2988ZM133.155 25.9229V35.9648H99.1636V25.9229H133.155ZM184.698 64.0024V74H148.174V64.0024H184.698ZM183.987 33.2988L153.328 74H144.752V66.4019L175.278 25.9229H183.987V33.2988ZM179.455 25.9229V35.9648H145.463V25.9229H179.455ZM218.69 63.1582V41.7412C218.69 40.2008 218.438 38.8826 217.935 37.7866C217.431 36.661 216.646 35.7871 215.58 35.165C214.543 34.543 213.195 34.2319 211.536 34.2319C210.114 34.2319 208.885 34.4837 207.848 34.9873C206.811 35.4613 206.012 36.1574 205.449 37.0757C204.886 37.9644 204.604 39.016 204.604 40.2305H191.808C191.808 38.1865 192.282 36.2463 193.229 34.4097C194.177 32.5731 195.555 30.9587 197.362 29.5664C199.169 28.1445 201.316 27.0337 203.805 26.2339C206.323 25.4341 209.137 25.0342 212.247 25.0342C215.979 25.0342 219.297 25.6562 222.2 26.9004C225.103 28.1445 227.384 30.0107 229.043 32.499C230.731 34.9873 231.576 38.0977 231.576 41.8301V62.4028C231.576 65.0392 231.739 67.2017 232.064 68.8901C232.39 70.549 232.864 72.0005 233.486 73.2446V74H220.556C219.934 72.6966 219.46 71.0674 219.134 69.1123C218.838 67.1276 218.69 65.1429 218.69 63.1582ZM220.378 44.7183L220.467 51.9609H213.313C211.625 51.9609 210.159 52.1535 208.915 52.5386C207.67 52.9237 206.648 53.4717 205.849 54.1826C205.049 54.8639 204.456 55.6637 204.071 56.582C203.716 57.5003 203.538 58.5075 203.538 59.6035C203.538 60.6995 203.79 61.6919 204.293 62.5806C204.797 63.4396 205.523 64.1209 206.471 64.6245C207.419 65.0985 208.529 65.3354 209.803 65.3354C211.729 65.3354 213.402 64.9504 214.824 64.1802C216.246 63.41 217.342 62.4621 218.112 61.3364C218.912 60.2108 219.327 59.1444 219.356 58.1372L222.733 63.5581C222.259 64.7726 221.608 66.0316 220.778 67.335C219.979 68.6383 218.957 69.8677 217.712 71.0229C216.468 72.1486 214.972 73.0817 213.225 73.8223C211.477 74.5332 209.403 74.8887 207.004 74.8887C203.953 74.8887 201.183 74.2814 198.695 73.0669C196.236 71.8228 194.281 70.1195 192.83 67.957C191.408 65.765 190.697 63.2767 190.697 60.4922C190.697 57.9743 191.171 55.7378 192.119 53.7827C193.067 51.8276 194.459 50.1836 196.295 48.8506C198.162 47.488 200.487 46.466 203.271 45.7847C206.056 45.0737 209.285 44.7183 212.958 44.7183H220.378ZM254.237 36.4092V74H241.44V25.9229H253.481L254.237 36.4092ZM268.722 25.6118L268.5 37.4756C267.878 37.3867 267.123 37.3127 266.234 37.2534C265.375 37.1646 264.59 37.1201 263.879 37.1201C262.072 37.1201 260.502 37.3571 259.169 37.8311C257.866 38.2754 256.77 38.9419 255.881 39.8306C255.022 40.7192 254.37 41.8005 253.926 43.0742C253.511 44.348 253.274 45.7995 253.215 47.4287L250.638 46.6289C250.638 43.5186 250.949 40.66 251.571 38.0532C252.193 35.4168 253.096 33.1211 254.281 31.166C255.496 29.2109 256.977 27.7002 258.725 26.6338C260.472 25.5674 262.472 25.0342 264.723 25.0342C265.434 25.0342 266.16 25.0934 266.9 25.2119C267.641 25.3008 268.248 25.4341 268.722 25.6118ZM288.273 25.9229V74H275.432V25.9229H288.273ZM274.632 13.3926C274.632 11.5264 275.284 9.986 276.587 8.77148C277.89 7.55697 279.638 6.94971 281.83 6.94971C283.993 6.94971 285.725 7.55697 287.029 8.77148C288.362 9.986 289.028 11.5264 289.028 13.3926C289.028 15.2588 288.362 16.7992 287.029 18.0137C285.725 19.2282 283.993 19.8354 281.83 19.8354C279.638 19.8354 277.89 19.2282 276.587 18.0137C275.284 16.7992 274.632 15.2588 274.632 13.3926ZM324.797 63.1582V41.7412C324.797 40.2008 324.546 38.8826 324.042 37.7866C323.538 36.661 322.753 35.7871 321.687 35.165C320.65 34.543 319.302 34.2319 317.644 34.2319C316.222 34.2319 314.992 34.4837 313.956 34.9873C312.919 35.4613 312.119 36.1574 311.556 37.0757C310.993 37.9644 310.712 39.016 310.712 40.2305H297.915C297.915 38.1865 298.389 36.2463 299.337 34.4097C300.285 32.5731 301.662 30.9587 303.469 29.5664C305.276 28.1445 307.424 27.0337 309.912 26.2339C312.43 25.4341 315.244 25.0342 318.354 25.0342C322.087 25.0342 325.405 25.6562 328.308 26.9004C331.211 28.1445 333.492 30.0107 335.15 32.499C336.839 34.9873 337.683 38.0977 337.683 41.8301V62.4028C337.683 65.0392 337.846 67.2017 338.172 68.8901C338.498 70.549 338.972 72.0005 339.594 73.2446V74H326.664C326.042 72.6966 325.568 71.0674 325.242 69.1123C324.945 67.1276 324.797 65.1429 324.797 63.1582ZM326.486 44.7183L326.575 51.9609H319.421C317.732 51.9609 316.266 52.1535 315.022 52.5386C313.778 52.9237 312.756 53.4717 311.956 54.1826C311.156 54.8639 310.564 55.6637 310.179 56.582C309.823 57.5003 309.646 58.5075 309.646 59.6035C309.646 60.6995 309.897 61.6919 310.401 62.5806C310.904 63.4396 311.63 64.1209 312.578 64.6245C313.526 65.0985 314.637 65.3354 315.911 65.3354C317.836 65.3354 319.51 64.9504 320.932 64.1802C322.354 63.41 323.45 62.4621 324.22 61.3364C325.02 60.2108 325.434 59.1444 325.464 58.1372L328.841 63.5581C328.367 64.7726 327.715 66.0316 326.886 67.335C326.086 68.6383 325.064 69.8677 323.82 71.0229C322.576 72.1486 321.08 73.0817 319.332 73.8223C317.584 74.5332 315.511 74.8887 313.111 74.8887C310.06 74.8887 307.291 74.2814 304.802 73.0669C302.344 71.8228 300.389 70.1195 298.937 67.957C297.515 65.765 296.804 63.2767 296.804 60.4922C296.804 57.9743 297.278 55.7378 298.226 53.7827C299.174 51.8276 300.566 50.1836 302.403 48.8506C304.269 47.488 306.594 46.466 309.379 45.7847C312.163 45.0737 315.392 44.7183 319.065 44.7183H326.486Z" fill="#FFD600"/>
<path d="M30.6914 139.514V81.75H43.5771V150H31.98L30.6914 139.514ZM0.298828 126.539V125.606C0.298828 121.933 0.713542 118.6 1.54297 115.608C2.3724 112.587 3.58691 109.995 5.18652 107.833C6.78613 105.67 8.75602 103.996 11.0962 102.812C13.4364 101.627 16.1024 101.034 19.0942 101.034C21.9084 101.034 24.367 101.627 26.4702 102.812C28.603 103.996 30.41 105.685 31.8911 107.877C33.4019 110.039 34.6164 112.602 35.5347 115.564C36.453 118.497 37.1195 121.711 37.5342 125.206V127.25C37.1195 130.597 36.453 133.708 35.5347 136.581C34.6164 139.454 33.4019 141.972 31.8911 144.135C30.41 146.268 28.603 147.926 26.4702 149.111C24.3374 150.296 21.8491 150.889 19.0054 150.889C16.0135 150.889 13.3475 150.281 11.0073 149.067C8.69678 147.852 6.7417 146.149 5.14209 143.957C3.5721 141.765 2.3724 139.188 1.54297 136.226C0.713542 133.263 0.298828 130.035 0.298828 126.539ZM13.0957 125.606V126.539C13.0957 128.524 13.2438 130.375 13.54 132.093C13.8659 133.811 14.3843 135.337 15.0952 136.67C15.8358 137.973 16.7837 138.995 17.939 139.736C19.1239 140.447 20.5605 140.802 22.249 140.802C24.4411 140.802 26.248 140.313 27.6699 139.336C29.0918 138.329 30.173 136.951 30.9136 135.204C31.6838 133.456 32.1281 131.442 32.2466 129.161V123.34C32.1577 121.474 31.8911 119.8 31.4468 118.319C31.0321 116.808 30.41 115.52 29.5806 114.453C28.7808 113.387 27.7736 112.557 26.5591 111.965C25.3742 111.372 23.9671 111.076 22.3379 111.076C20.679 111.076 19.2572 111.461 18.0723 112.231C16.8874 112.972 15.9246 113.994 15.1841 115.297C14.4731 116.601 13.9399 118.141 13.5845 119.918C13.2586 121.666 13.0957 123.562 13.0957 125.606ZM82.0122 138.492V101.923H94.8091V150H82.7676L82.0122 138.492ZM83.4341 128.627L87.2109 128.539C87.2109 131.738 86.8407 134.715 86.1001 137.47C85.3595 140.195 84.2487 142.565 82.7676 144.579C81.2865 146.564 79.4202 148.119 77.1689 149.245C74.9176 150.341 72.2664 150.889 69.2153 150.889C66.8752 150.889 64.7127 150.563 62.728 149.911C60.7729 149.23 59.0845 148.178 57.6626 146.756C56.2703 145.305 55.1743 143.453 54.3745 141.202C53.6043 138.921 53.2192 136.181 53.2192 132.982V101.923H66.0161V133.071C66.0161 134.493 66.179 135.692 66.5049 136.67C66.8604 137.647 67.3491 138.447 67.9712 139.069C68.5933 139.691 69.319 140.136 70.1484 140.402C71.0075 140.669 71.9554 140.802 72.9922 140.802C75.6286 140.802 77.7021 140.269 79.2129 139.203C80.7533 138.136 81.8345 136.685 82.4565 134.848C83.1082 132.982 83.4341 130.908 83.4341 128.627ZM132.355 85.3047H143.642L160.26 132.804L176.878 85.3047H188.164L164.792 150H155.728L132.355 85.3047ZM126.268 85.3047H137.51L139.554 131.604V150H126.268V85.3047ZM183.01 85.3047H194.296V150H180.966V131.604L183.01 85.3047ZM231.131 139.158V117.741C231.131 116.201 230.88 114.883 230.376 113.787C229.872 112.661 229.087 111.787 228.021 111.165C226.984 110.543 225.636 110.232 223.978 110.232C222.556 110.232 221.326 110.484 220.29 110.987C219.253 111.461 218.453 112.157 217.89 113.076C217.327 113.964 217.046 115.016 217.046 116.23H204.249C204.249 114.187 204.723 112.246 205.671 110.41C206.619 108.573 207.996 106.959 209.803 105.566C211.61 104.145 213.758 103.034 216.246 102.234C218.764 101.434 221.578 101.034 224.688 101.034C228.421 101.034 231.739 101.656 234.642 102.9C237.545 104.145 239.826 106.011 241.484 108.499C243.173 110.987 244.017 114.098 244.017 117.83V138.403C244.017 141.039 244.18 143.202 244.506 144.89C244.832 146.549 245.306 148 245.928 149.245V150H232.998C232.375 148.697 231.902 147.067 231.576 145.112C231.279 143.128 231.131 141.143 231.131 139.158ZM232.82 120.718L232.909 127.961H225.755C224.066 127.961 222.6 128.153 221.356 128.539C220.112 128.924 219.09 129.472 218.29 130.183C217.49 130.864 216.898 131.664 216.513 132.582C216.157 133.5 215.979 134.507 215.979 135.604C215.979 136.7 216.231 137.692 216.735 138.581C217.238 139.44 217.964 140.121 218.912 140.625C219.86 141.098 220.971 141.335 222.245 141.335C224.17 141.335 225.844 140.95 227.266 140.18C228.688 139.41 229.784 138.462 230.554 137.336C231.354 136.211 231.768 135.144 231.798 134.137L235.175 139.558C234.701 140.773 234.049 142.032 233.22 143.335C232.42 144.638 231.398 145.868 230.154 147.023C228.91 148.149 227.414 149.082 225.666 149.822C223.918 150.533 221.845 150.889 219.445 150.889C216.394 150.889 213.625 150.281 211.136 149.067C208.678 147.823 206.722 146.119 205.271 143.957C203.849 141.765 203.138 139.277 203.138 136.492C203.138 133.974 203.612 131.738 204.56 129.783C205.508 127.828 206.9 126.184 208.737 124.851C210.603 123.488 212.928 122.466 215.713 121.785C218.497 121.074 221.726 120.718 225.399 120.718H232.82ZM266.678 112.409V150H253.881V101.923H265.923L266.678 112.409ZM281.164 101.612L280.941 113.476C280.319 113.387 279.564 113.313 278.675 113.253C277.816 113.165 277.031 113.12 276.32 113.12C274.513 113.12 272.943 113.357 271.61 113.831C270.307 114.275 269.211 114.942 268.322 115.831C267.463 116.719 266.812 117.8 266.367 119.074C265.952 120.348 265.715 121.799 265.656 123.429L263.079 122.629C263.079 119.519 263.39 116.66 264.012 114.053C264.634 111.417 265.538 109.121 266.723 107.166C267.937 105.211 269.418 103.7 271.166 102.634C272.914 101.567 274.913 101.034 277.165 101.034C277.875 101.034 278.601 101.093 279.342 101.212C280.082 101.301 280.69 101.434 281.164 101.612ZM300.714 101.923V150H287.873V101.923H300.714ZM287.073 89.3926C287.073 87.5264 287.725 85.986 289.028 84.7715C290.332 83.557 292.079 82.9497 294.271 82.9497C296.434 82.9497 298.167 83.557 299.47 84.7715C300.803 85.986 301.47 87.5264 301.47 89.3926C301.47 91.2588 300.803 92.7992 299.47 94.0137C298.167 95.2282 296.434 95.8354 294.271 95.8354C292.079 95.8354 290.332 95.2282 289.028 94.0137C287.725 92.7992 287.073 91.2588 287.073 89.3926ZM309.246 126.45V125.517C309.246 121.992 309.749 118.748 310.756 115.786C311.764 112.794 313.23 110.202 315.155 108.01C317.081 105.818 319.451 104.115 322.265 102.9C325.079 101.656 328.308 101.034 331.951 101.034C335.595 101.034 338.838 101.656 341.682 102.9C344.526 104.115 346.91 105.818 348.836 108.01C350.791 110.202 352.272 112.794 353.279 115.786C354.286 118.748 354.79 121.992 354.79 125.517V126.45C354.79 129.946 354.286 133.189 353.279 136.181C352.272 139.143 350.791 141.735 348.836 143.957C346.91 146.149 344.541 147.852 341.727 149.067C338.912 150.281 335.684 150.889 332.04 150.889C328.396 150.889 325.153 150.281 322.309 149.067C319.495 147.852 317.11 146.149 315.155 143.957C313.23 141.735 311.764 139.143 310.756 136.181C309.749 133.189 309.246 129.946 309.246 126.45ZM322.042 125.517V126.45C322.042 128.465 322.22 130.346 322.576 132.093C322.931 133.841 323.494 135.381 324.264 136.714C325.064 138.018 326.101 139.04 327.375 139.78C328.648 140.521 330.203 140.891 332.04 140.891C333.817 140.891 335.343 140.521 336.617 139.78C337.89 139.04 338.912 138.018 339.683 136.714C340.453 135.381 341.016 133.841 341.371 132.093C341.756 130.346 341.949 128.465 341.949 126.45V125.517C341.949 123.562 341.756 121.725 341.371 120.007C341.016 118.26 340.438 116.719 339.638 115.386C338.868 114.024 337.846 112.957 336.572 112.187C335.299 111.417 333.758 111.032 331.951 111.032C330.144 111.032 328.604 111.417 327.33 112.187C326.086 112.957 325.064 114.024 324.264 115.386C323.494 116.719 322.931 118.26 322.576 120.007C322.22 121.725 322.042 123.562 322.042 125.517Z" fill="#FF3F4A"/>
<path d="M116.271 81.75V88.5039C116.271 90.4294 115.9 92.4141 115.16 94.458C114.449 96.502 113.486 98.4422 112.271 100.279C111.057 102.086 109.724 103.626 108.272 104.9L102.274 101.434C103.37 99.6864 104.303 97.7905 105.073 95.7466C105.843 93.673 106.229 91.2736 106.229 88.5483V81.75H116.271Z" fill="#FFD600"/>
</svg>
