<svg width="362" height="56" viewBox="0 0 362 56" fill="none" xmlns="http://www.w3.org/2000/svg">
<g clip-path="url(#clip0_37_2963)">
<g filter="url(#filter0_d_37_2963)">
<path d="M12.7656 31.8359H4.07031V26.3516H12.7656C14.1094 26.3516 15.2031 26.1328 16.0469 25.6953C16.8906 25.2422 17.5078 24.6172 17.8984 23.8203C18.2891 23.0234 18.4844 22.125 18.4844 21.125C18.4844 20.1094 18.2891 19.1641 17.8984 18.2891C17.5078 17.4141 16.8906 16.7109 16.0469 16.1797C15.2031 15.6484 14.1094 15.3828 12.7656 15.3828H6.50781V44H-0.523438V9.875H12.7656C15.4375 9.875 17.7266 10.3594 19.6328 11.3281C21.5547 12.2813 23.0234 13.6016 24.0391 15.2891C25.0547 16.9766 25.5625 18.9062 25.5625 21.0781C25.5625 23.2812 25.0547 25.1875 24.0391 26.7969C23.0234 28.4062 21.5547 29.6484 19.6328 30.5234C17.7266 31.3984 15.4375 31.8359 12.7656 31.8359ZM37.1172 18.6406V44H30.3438V18.6406H37.1172ZM29.9219 12.0312C29.9219 11.0469 30.2656 10.2344 30.9531 9.59375C31.6406 8.95313 32.5625 8.63281 33.7188 8.63281C34.8594 8.63281 35.7734 8.95313 36.4609 9.59375C37.1641 10.2344 37.5156 11.0469 37.5156 12.0312C37.5156 13.0156 37.1641 13.8281 36.4609 14.4688C35.7734 15.1094 34.8594 15.4297 33.7188 15.4297C32.5625 15.4297 31.6406 15.1094 30.9531 14.4688C30.2656 13.8281 29.9219 13.0156 29.9219 12.0312ZM62.875 38.7266V44H43.6094V38.7266H62.875ZM62.5 22.5312L46.3281 44H41.8047V39.9922L57.9062 18.6406H62.5V22.5312ZM60.1094 18.6406V23.9375H42.1797V18.6406H60.1094ZM87.2969 38.7266V44H68.0312V38.7266H87.2969ZM86.9219 22.5312L70.75 44H66.2266V39.9922L82.3281 18.6406H86.9219V22.5312ZM84.5312 18.6406V23.9375H66.6016V18.6406H84.5312ZM105.227 38.2812V26.9844C105.227 26.1719 105.094 25.4766 104.828 24.8984C104.562 24.3047 104.148 23.8438 103.586 23.5156C103.039 23.1875 102.328 23.0234 101.453 23.0234C100.703 23.0234 100.055 23.1562 99.5078 23.4219C98.9609 23.6719 98.5391 24.0391 98.2422 24.5234C97.9453 24.9922 97.7969 25.5469 97.7969 26.1875H91.0469C91.0469 25.1094 91.2969 24.0859 91.7969 23.1172C92.2969 22.1484 93.0234 21.2969 93.9766 20.5625C94.9297 19.8125 96.0625 19.2266 97.375 18.8047C98.7031 18.3828 100.188 18.1719 101.828 18.1719C103.797 18.1719 105.547 18.5 107.078 19.1562C108.609 19.8125 109.812 20.7969 110.688 22.1094C111.578 23.4219 112.023 25.0625 112.023 27.0312V37.8828C112.023 39.2734 112.109 40.4141 112.281 41.3047C112.453 42.1797 112.703 42.9453 113.031 43.6016V44H106.211C105.883 43.3125 105.633 42.4531 105.461 41.4219C105.305 40.375 105.227 39.3281 105.227 38.2812ZM106.117 28.5547L106.164 32.375H102.391C101.5 32.375 100.727 32.4766 100.07 32.6797C99.4141 32.8828 98.875 33.1719 98.4531 33.5469C98.0312 33.9062 97.7188 34.3281 97.5156 34.8125C97.3281 35.2969 97.2344 35.8281 97.2344 36.4062C97.2344 36.9844 97.3672 37.5078 97.6328 37.9766C97.8984 38.4297 98.2812 38.7891 98.7812 39.0547C99.2812 39.3047 99.8672 39.4297 100.539 39.4297C101.555 39.4297 102.438 39.2266 103.188 38.8203C103.938 38.4141 104.516 37.9141 104.922 37.3203C105.344 36.7266 105.562 36.1641 105.578 35.6328L107.359 38.4922C107.109 39.1328 106.766 39.7969 106.328 40.4844C105.906 41.1719 105.367 41.8203 104.711 42.4297C104.055 43.0234 103.266 43.5156 102.344 43.9062C101.422 44.2812 100.328 44.4688 99.0625 44.4688C97.4531 44.4688 95.9922 44.1484 94.6797 43.5078C93.3828 42.8516 92.3516 41.9531 91.5859 40.8125C90.8359 39.6562 90.4609 38.3438 90.4609 36.875C90.4609 35.5469 90.7109 34.3672 91.2109 33.3359C91.7109 32.3047 92.4453 31.4375 93.4141 30.7344C94.3984 30.0156 95.625 29.4766 97.0938 29.1172C98.5625 28.7422 100.266 28.5547 102.203 28.5547H106.117ZM123.977 24.1719V44H117.227V18.6406H123.578L123.977 24.1719ZM131.617 18.4766L131.5 24.7344C131.172 24.6875 130.773 24.6484 130.305 24.6172C129.852 24.5703 129.438 24.5469 129.062 24.5469C128.109 24.5469 127.281 24.6719 126.578 24.9219C125.891 25.1562 125.312 25.5078 124.844 25.9766C124.391 26.4453 124.047 27.0156 123.812 27.6875C123.594 28.3594 123.469 29.125 123.438 29.9844L122.078 29.5625C122.078 27.9219 122.242 26.4141 122.57 25.0391C122.898 23.6484 123.375 22.4375 124 21.4062C124.641 20.375 125.422 19.5781 126.344 19.0156C127.266 18.4531 128.32 18.1719 129.508 18.1719C129.883 18.1719 130.266 18.2031 130.656 18.2656C131.047 18.3125 131.367 18.3828 131.617 18.4766ZM141.93 18.6406V44H135.156V18.6406H141.93ZM134.734 12.0312C134.734 11.0469 135.078 10.2344 135.766 9.59375C136.453 8.95313 137.375 8.63281 138.531 8.63281C139.672 8.63281 140.586 8.95313 141.273 9.59375C141.977 10.2344 142.328 11.0469 142.328 12.0312C142.328 13.0156 141.977 13.8281 141.273 14.4688C140.586 15.1094 139.672 15.4297 138.531 15.4297C137.375 15.4297 136.453 15.1094 135.766 14.4688C135.078 13.8281 134.734 13.0156 134.734 12.0312ZM161.195 38.2812V26.9844C161.195 26.1719 161.062 25.4766 160.797 24.8984C160.531 24.3047 160.117 23.8438 159.555 23.5156C159.008 23.1875 158.297 23.0234 157.422 23.0234C156.672 23.0234 156.023 23.1562 155.477 23.4219C154.93 23.6719 154.508 24.0391 154.211 24.5234C153.914 24.9922 153.766 25.5469 153.766 26.1875H147.016C147.016 25.1094 147.266 24.0859 147.766 23.1172C148.266 22.1484 148.992 21.2969 149.945 20.5625C150.898 19.8125 152.031 19.2266 153.344 18.8047C154.672 18.3828 156.156 18.1719 157.797 18.1719C159.766 18.1719 161.516 18.5 163.047 19.1562C164.578 19.8125 165.781 20.7969 166.656 22.1094C167.547 23.4219 167.992 25.0625 167.992 27.0312V37.8828C167.992 39.2734 168.078 40.4141 168.25 41.3047C168.422 42.1797 168.672 42.9453 169 43.6016V44H162.18C161.852 43.3125 161.602 42.4531 161.43 41.4219C161.273 40.375 161.195 39.3281 161.195 38.2812ZM162.086 28.5547L162.133 32.375H158.359C157.469 32.375 156.695 32.4766 156.039 32.6797C155.383 32.8828 154.844 33.1719 154.422 33.5469C154 33.9062 153.688 34.3281 153.484 34.8125C153.297 35.2969 153.203 35.8281 153.203 36.4062C153.203 36.9844 153.336 37.5078 153.602 37.9766C153.867 38.4297 154.25 38.7891 154.75 39.0547C155.25 39.3047 155.836 39.4297 156.508 39.4297C157.523 39.4297 158.406 39.2266 159.156 38.8203C159.906 38.4141 160.484 37.9141 160.891 37.3203C161.312 36.7266 161.531 36.1641 161.547 35.6328L163.328 38.4922C163.078 39.1328 162.734 39.7969 162.297 40.4844C161.875 41.1719 161.336 41.8203 160.68 42.4297C160.023 43.0234 159.234 43.5156 158.312 43.9062C157.391 44.2812 156.297 44.4688 155.031 44.4688C153.422 44.4688 151.961 44.1484 150.648 43.5078C149.352 42.8516 148.32 41.9531 147.555 40.8125C146.805 39.6562 146.43 38.3438 146.43 36.875C146.43 35.5469 146.68 34.3672 147.18 33.3359C147.68 32.3047 148.414 31.4375 149.383 30.7344C150.367 30.0156 151.594 29.4766 153.062 29.1172C154.531 28.7422 156.234 28.5547 158.172 28.5547H162.086Z" fill="#FFD600"/>
</g>
<path d="M191.062 38.4688V8H197.859V44H191.742L191.062 38.4688ZM175.031 31.625V31.1328C175.031 29.1953 175.25 27.4375 175.688 25.8594C176.125 24.2656 176.766 22.8984 177.609 21.7578C178.453 20.6172 179.492 19.7344 180.727 19.1094C181.961 18.4844 183.367 18.1719 184.945 18.1719C186.43 18.1719 187.727 18.4844 188.836 19.1094C189.961 19.7344 190.914 20.625 191.695 21.7812C192.492 22.9219 193.133 24.2734 193.617 25.8359C194.102 27.3828 194.453 29.0781 194.672 30.9219V32C194.453 33.7656 194.102 35.4062 193.617 36.9219C193.133 38.4375 192.492 39.7656 191.695 40.9062C190.914 42.0312 189.961 42.9062 188.836 43.5312C187.711 44.1562 186.398 44.4688 184.898 44.4688C183.32 44.4688 181.914 44.1484 180.68 43.5078C179.461 42.8672 178.43 41.9688 177.586 40.8125C176.758 39.6562 176.125 38.2969 175.688 36.7344C175.25 35.1719 175.031 33.4688 175.031 31.625ZM181.781 31.1328V31.625C181.781 32.6719 181.859 33.6484 182.016 34.5547C182.188 35.4609 182.461 36.2656 182.836 36.9688C183.227 37.6562 183.727 38.1953 184.336 38.5859C184.961 38.9609 185.719 39.1484 186.609 39.1484C187.766 39.1484 188.719 38.8906 189.469 38.375C190.219 37.8438 190.789 37.1172 191.18 36.1953C191.586 35.2734 191.82 34.2109 191.883 33.0078V29.9375C191.836 28.9531 191.695 28.0703 191.461 27.2891C191.242 26.4922 190.914 25.8125 190.477 25.25C190.055 24.6875 189.523 24.25 188.883 23.9375C188.258 23.625 187.516 23.4688 186.656 23.4688C185.781 23.4688 185.031 23.6719 184.406 24.0781C183.781 24.4688 183.273 25.0078 182.883 25.6953C182.508 26.3828 182.227 27.1953 182.039 28.1328C181.867 29.0547 181.781 30.0547 181.781 31.1328ZM218.133 37.9297V18.6406H224.883V44H218.531L218.133 37.9297ZM218.883 32.7266L220.875 32.6797C220.875 34.3672 220.68 35.9375 220.289 37.3906C219.898 38.8281 219.312 40.0781 218.531 41.1406C217.75 42.1875 216.766 43.0078 215.578 43.6016C214.391 44.1797 212.992 44.4688 211.383 44.4688C210.148 44.4688 209.008 44.2969 207.961 43.9531C206.93 43.5938 206.039 43.0391 205.289 42.2891C204.555 41.5234 203.977 40.5469 203.555 39.3594C203.148 38.1562 202.945 36.7109 202.945 35.0234V18.6406H209.695V35.0703C209.695 35.8203 209.781 36.4531 209.953 36.9688C210.141 37.4844 210.398 37.9062 210.727 38.2344C211.055 38.5625 211.438 38.7969 211.875 38.9375C212.328 39.0781 212.828 39.1484 213.375 39.1484C214.766 39.1484 215.859 38.8672 216.656 38.3047C217.469 37.7422 218.039 36.9766 218.367 36.0078C218.711 35.0234 218.883 33.9297 218.883 32.7266ZM244.688 9.875H250.641L259.406 34.9297L268.172 9.875H274.125L261.797 44H257.016L244.688 9.875ZM241.477 9.875H247.406L248.484 34.2969V44H241.477V9.875ZM271.406 9.875H277.359V44H270.328V34.2969L271.406 9.875ZM296.789 38.2812V26.9844C296.789 26.1719 296.656 25.4766 296.391 24.8984C296.125 24.3047 295.711 23.8438 295.148 23.5156C294.602 23.1875 293.891 23.0234 293.016 23.0234C292.266 23.0234 291.617 23.1562 291.07 23.4219C290.523 23.6719 290.102 24.0391 289.805 24.5234C289.508 24.9922 289.359 25.5469 289.359 26.1875H282.609C282.609 25.1094 282.859 24.0859 283.359 23.1172C283.859 22.1484 284.586 21.2969 285.539 20.5625C286.492 19.8125 287.625 19.2266 288.938 18.8047C290.266 18.3828 291.75 18.1719 293.391 18.1719C295.359 18.1719 297.109 18.5 298.641 19.1562C300.172 19.8125 301.375 20.7969 302.25 22.1094C303.141 23.4219 303.586 25.0625 303.586 27.0312V37.8828C303.586 39.2734 303.672 40.4141 303.844 41.3047C304.016 42.1797 304.266 42.9453 304.594 43.6016V44H297.773C297.445 43.3125 297.195 42.4531 297.023 41.4219C296.867 40.375 296.789 39.3281 296.789 38.2812ZM297.68 28.5547L297.727 32.375H293.953C293.062 32.375 292.289 32.4766 291.633 32.6797C290.977 32.8828 290.438 33.1719 290.016 33.5469C289.594 33.9062 289.281 34.3281 289.078 34.8125C288.891 35.2969 288.797 35.8281 288.797 36.4062C288.797 36.9844 288.93 37.5078 289.195 37.9766C289.461 38.4297 289.844 38.7891 290.344 39.0547C290.844 39.3047 291.43 39.4297 292.102 39.4297C293.117 39.4297 294 39.2266 294.75 38.8203C295.5 38.4141 296.078 37.9141 296.484 37.3203C296.906 36.7266 297.125 36.1641 297.141 35.6328L298.922 38.4922C298.672 39.1328 298.328 39.7969 297.891 40.4844C297.469 41.1719 296.93 41.8203 296.273 42.4297C295.617 43.0234 294.828 43.5156 293.906 43.9062C292.984 44.2812 291.891 44.4688 290.625 44.4688C289.016 44.4688 287.555 44.1484 286.242 43.5078C284.945 42.8516 283.914 41.9531 283.148 40.8125C282.398 39.6562 282.023 38.3438 282.023 36.875C282.023 35.5469 282.273 34.3672 282.773 33.3359C283.273 32.3047 284.008 31.4375 284.977 30.7344C285.961 30.0156 287.188 29.4766 288.656 29.1172C290.125 28.7422 291.828 28.5547 293.766 28.5547H297.68ZM315.539 24.1719V44H308.789V18.6406H315.141L315.539 24.1719ZM323.18 18.4766L323.062 24.7344C322.734 24.6875 322.336 24.6484 321.867 24.6172C321.414 24.5703 321 24.5469 320.625 24.5469C319.672 24.5469 318.844 24.6719 318.141 24.9219C317.453 25.1562 316.875 25.5078 316.406 25.9766C315.953 26.4453 315.609 27.0156 315.375 27.6875C315.156 28.3594 315.031 29.125 315 29.9844L313.641 29.5625C313.641 27.9219 313.805 26.4141 314.133 25.0391C314.461 23.6484 314.938 22.4375 315.562 21.4062C316.203 20.375 316.984 19.5781 317.906 19.0156C318.828 18.4531 319.883 18.1719 321.07 18.1719C321.445 18.1719 321.828 18.2031 322.219 18.2656C322.609 18.3125 322.93 18.3828 323.18 18.4766ZM333.492 18.6406V44H326.719V18.6406H333.492ZM326.297 12.0312C326.297 11.0469 326.641 10.2344 327.328 9.59375C328.016 8.95313 328.938 8.63281 330.094 8.63281C331.234 8.63281 332.148 8.95313 332.836 9.59375C333.539 10.2344 333.891 11.0469 333.891 12.0312C333.891 13.0156 333.539 13.8281 332.836 14.4688C332.148 15.1094 331.234 15.4297 330.094 15.4297C328.938 15.4297 328.016 15.1094 327.328 14.4688C326.641 13.8281 326.297 13.0156 326.297 12.0312ZM337.992 31.5781V31.0859C337.992 29.2266 338.258 27.5156 338.789 25.9531C339.32 24.375 340.094 23.0078 341.109 21.8516C342.125 20.6953 343.375 19.7969 344.859 19.1562C346.344 18.5 348.047 18.1719 349.969 18.1719C351.891 18.1719 353.602 18.5 355.102 19.1562C356.602 19.7969 357.859 20.6953 358.875 21.8516C359.906 23.0078 360.688 24.375 361.219 25.9531C361.75 27.5156 362.016 29.2266 362.016 31.0859V31.5781C362.016 33.4219 361.75 35.1328 361.219 36.7109C360.688 38.2734 359.906 39.6406 358.875 40.8125C357.859 41.9688 356.609 42.8672 355.125 43.5078C353.641 44.1484 351.938 44.4688 350.016 44.4688C348.094 44.4688 346.383 44.1484 344.883 43.5078C343.398 42.8672 342.141 41.9688 341.109 40.8125C340.094 39.6406 339.32 38.2734 338.789 36.7109C338.258 35.1328 337.992 33.4219 337.992 31.5781ZM344.742 31.0859V31.5781C344.742 32.6406 344.836 33.6328 345.023 34.5547C345.211 35.4766 345.508 36.2891 345.914 36.9922C346.336 37.6797 346.883 38.2188 347.555 38.6094C348.227 39 349.047 39.1953 350.016 39.1953C350.953 39.1953 351.758 39 352.43 38.6094C353.102 38.2188 353.641 37.6797 354.047 36.9922C354.453 36.2891 354.75 35.4766 354.938 34.5547C355.141 33.6328 355.242 32.6406 355.242 31.5781V31.0859C355.242 30.0547 355.141 29.0859 354.938 28.1797C354.75 27.2578 354.445 26.4453 354.023 25.7422C353.617 25.0234 353.078 24.4609 352.406 24.0547C351.734 23.6484 350.922 23.4453 349.969 23.4453C349.016 23.4453 348.203 23.6484 347.531 24.0547C346.875 24.4609 346.336 25.0234 345.914 25.7422C345.508 26.4453 345.211 27.2578 345.023 28.1797C344.836 29.0859 344.742 30.0547 344.742 31.0859Z" fill="#FF3F4A"/>
<path d="M236.203 8V11.5625C236.203 12.5781 236.008 13.625 235.617 14.7031C235.242 15.7812 234.734 16.8047 234.094 17.7734C233.453 18.7266 232.75 19.5391 231.984 20.2109L228.82 18.3828C229.398 17.4609 229.891 16.4609 230.297 15.3828C230.703 14.2891 230.906 13.0234 230.906 11.5859V8H236.203Z" fill="#FFD600"/>
</g>
<defs>
<filter id="filter0_d_37_2963" x="-9.52344" y="-1.36719" width="185.523" height="51.8359" filterUnits="userSpaceOnUse" color-interpolation-filters="sRGB">
<feFlood flood-opacity="0" result="BackgroundImageFix"/>
<feColorMatrix in="SourceAlpha" type="matrix" values="0 0 0 0 0 0 0 0 0 0 0 0 0 0 0 0 0 0 127 0" result="hardAlpha"/>
<feOffset dx="-1" dy="-2"/>
<feGaussianBlur stdDeviation="4"/>
<feComposite in2="hardAlpha" operator="out"/>
<feColorMatrix type="matrix" values="0 0 0 0 0 0 0 0 0 0 0 0 0 0 0 0 0 0 0.5 0"/>
<feBlend mode="normal" in2="BackgroundImageFix" result="effect1_dropShadow_37_2963"/>
<feBlend mode="normal" in="SourceGraphic" in2="effect1_dropShadow_37_2963" result="shape"/>
</filter>
<clipPath id="clip0_37_2963">
<rect width="362" height="56" fill="white"/>
</clipPath>
</defs>
</svg>